<svg xmlns="http://www.w3.org/2000/svg" viewBox="0 0 64 48" shape-rendering="crispEdges" width="640" height="480"><rect width="64" height="48" fill="#2a1f4f"/><rect x="0" y="34" width="64" height="14" fill="#7b4a2d"/><rect x="0" y="34" width="64" height="2" fill="#a06a3f"/><rect x="0" y="8" width="64" height="3" fill="#7b4a2d" opacity=".6"/><g transform="translate(15 26)"><rect x="0" y="0" width="10" height="1" fill="#1b1028"/><rect x="0" y="1" width="1" height="1" fill="#1b1028"/><rect x="1" y="1" width="1" height="1" fill="#7b4a2d"/><rect x="2" y="1" width="1" height="1" fill="#5b3216"/><rect x="3" y="1" width="1" height="1" fill="#7b4a2d"/><rect x="4" y="1" width="1" height="1" fill="#5b3216"/><rect x="5" y="1" width="1" height="1" fill="#7b4a2d"/><rect x="6" y="1" width="1" height="1" fill="#5b3216"/><rect x="7" y="1" width="1" height="1" fill="#7b4a2d"/><rect x="8" y="1" width="1" height="1" fill="#5b3216"/><rect x="9" y="1" width="1" height="1" fill="#1b1028"/><rect x="0" y="2" width="1" height="1" fill="#1b1028"/><rect x="1" y="2" width="8" height="1" fill="#5b3216"/><rect x="9" y="2" width="1" height="1" fill="#1b1028"/><rect x="0" y="3" width="1" height="1" fill="#1b1028"/><rect x="1" y="3" width="1" height="1" fill="#7b4a2d"/><rect x="2" y="3" width="1" height="1" fill="#5b3216"/><rect x="3" y="3" width="1" height="1" fill="#7b4a2d"/><rect x="4" y="3" width="1" height="1" fill="#5b3216"/><rect x="5" y="3" width="1" height="1" fill="#7b4a2d"/><rect x="6" y="3" width="1" height="1" fill="#5b3216"/><rect x="7" y="3" width="1" height="1" fill="#7b4a2d"/><rect x="8" y="3" width="1" height="1" fill="#5b3216"/><rect x="9" y="3" width="1" height="1" fill="#1b1028"/><rect x="0" y="4" width="1" height="1" fill="#1b1028"/><rect x="1" y="4" width="8" height="1" fill="#5b3216"/><rect x="9" y="4" width="1" height="1" fill="#1b1028"/><rect x="0" y="5" width="1" height="1" fill="#1b1028"/><rect x="1" y="5" width="8" height="1" fill="#e5007d"/><rect x="9" y="5" width="1" height="1" fill="#1b1028"/><rect x="0" y="6" width="1" height="1" fill="#1b1028"/><rect x="1" y="6" width="1" height="1" fill="#e5007d"/><rect x="2" y="6" width="6" height="1" fill="#ffd23f"/><rect x="8" y="6" width="1" height="1" fill="#e5007d"/><rect x="9" y="6" width="1" height="1" fill="#1b1028"/><rect x="0" y="7" width="1" height="1" fill="#1b1028"/><rect x="1" y="7" width="8" height="1" fill="#e5007d"/><rect x="9" y="7" width="1" height="1" fill="#1b1028"/><rect x="0" y="8" width="1" height="1" fill="#1b1028"/><rect x="1" y="8" width="8" height="1" fill="#e5007d"/><rect x="9" y="8" width="1" height="1" fill="#1b1028"/><rect x="0" y="9" width="10" height="1" fill="#1b1028"/></g><g transform="translate(27 26)"><rect x="0" y="0" width="10" height="1" fill="#1b1028"/><rect x="0" y="1" width="1" height="1" fill="#1b1028"/><rect x="1" y="1" width="1" height="1" fill="#7b4a2d"/><rect x="2" y="1" width="1" height="1" fill="#5b3216"/><rect x="3" y="1" width="1" height="1" fill="#7b4a2d"/><rect x="4" y="1" width="1" height="1" fill="#5b3216"/><rect x="5" y="1" width="1" height="1" fill="#7b4a2d"/><rect x="6" y="1" width="1" height="1" fill="#5b3216"/><rect x="7" y="1" width="1" height="1" fill="#7b4a2d"/><rect x="8" y="1" width="1" height="1" fill="#5b3216"/><rect x="9" y="1" width="1" height="1" fill="#1b1028"/><rect x="0" y="2" width="1" height="1" fill="#1b1028"/><rect x="1" y="2" width="8" height="1" fill="#5b3216"/><rect x="9" y="2" width="1" height="1" fill="#1b1028"/><rect x="0" y="3" width="1" height="1" fill="#1b1028"/><rect x="1" y="3" width="1" height="1" fill="#7b4a2d"/><rect x="2" y="3" width="1" height="1" fill="#5b3216"/><rect x="3" y="3" width="1" height="1" fill="#7b4a2d"/><rect x="4" y="3" width="1" height="1" fill="#5b3216"/><rect x="5" y="3" width="1" height="1" fill="#7b4a2d"/><rect x="6" y="3" width="1" height="1" fill="#5b3216"/><rect x="7" y="3" width="1" height="1" fill="#7b4a2d"/><rect x="8" y="3" width="1" height="1" fill="#5b3216"/><rect x="9" y="3" width="1" height="1" fill="#1b1028"/><rect x="0" y="4" width="1" height="1" fill="#1b1028"/><rect x="1" y="4" width="8" height="1" fill="#5b3216"/><rect x="9" y="4" width="1" height="1" fill="#1b1028"/><rect x="0" y="5" width="1" height="1" fill="#1b1028"/><rect x="1" y="5" width="8" height="1" fill="#e5007d"/><rect x="9" y="5" width="1" height="1" fill="#1b1028"/><rect x="0" y="6" width="1" height="1" fill="#1b1028"/><rect x="1" y="6" width="1" height="1" fill="#e5007d"/><rect x="2" y="6" width="6" height="1" fill="#ffd23f"/><rect x="8" y="6" width="1" height="1" fill="#e5007d"/><rect x="9" y="6" width="1" height="1" fill="#1b1028"/><rect x="0" y="7" width="1" height="1" fill="#1b1028"/><rect x="1" y="7" width="8" height="1" fill="#e5007d"/><rect x="9" y="7" width="1" height="1" fill="#1b1028"/><rect x="0" y="8" width="1" height="1" fill="#1b1028"/><rect x="1" y="8" width="8" height="1" fill="#e5007d"/><rect x="9" y="8" width="1" height="1" fill="#1b1028"/><rect x="0" y="9" width="10" height="1" fill="#1b1028"/></g><g transform="translate(39 26)"><rect x="0" y="0" width="10" height="1" fill="#1b1028"/><rect x="0" y="1" width="1" height="1" fill="#1b1028"/><rect x="1" y="1" width="1" height="1" fill="#7b4a2d"/><rect x="2" y="1" width="1" height="1" fill="#5b3216"/><rect x="3" y="1" width="1" height="1" fill="#7b4a2d"/><rect x="4" y="1" width="1" height="1" fill="#5b3216"/><rect x="5" y="1" width="1" height="1" fill="#7b4a2d"/><rect x="6" y="1" width="1" height="1" fill="#5b3216"/><rect x="7" y="1" width="1" height="1" fill="#7b4a2d"/><rect x="8" y="1" width="1" height="1" fill="#5b3216"/><rect x="9" y="1" width="1" height="1" fill="#1b1028"/><rect x="0" y="2" width="1" height="1" fill="#1b1028"/><rect x="1" y="2" width="8" height="1" fill="#5b3216"/><rect x="9" y="2" width="1" height="1" fill="#1b1028"/><rect x="0" y="3" width="1" height="1" fill="#1b1028"/><rect x="1" y="3" width="1" height="1" fill="#7b4a2d"/><rect x="2" y="3" width="1" height="1" fill="#5b3216"/><rect x="3" y="3" width="1" height="1" fill="#7b4a2d"/><rect x="4" y="3" width="1" height="1" fill="#5b3216"/><rect x="5" y="3" width="1" height="1" fill="#7b4a2d"/><rect x="6" y="3" width="1" height="1" fill="#5b3216"/><rect x="7" y="3" width="1" height="1" fill="#7b4a2d"/><rect x="8" y="3" width="1" height="1" fill="#5b3216"/><rect x="9" y="3" width="1" height="1" fill="#1b1028"/><rect x="0" y="4" width="1" height="1" fill="#1b1028"/><rect x="1" y="4" width="8" height="1" fill="#5b3216"/><rect x="9" y="4" width="1" height="1" fill="#1b1028"/><rect x="0" y="5" width="1" height="1" fill="#1b1028"/><rect x="1" y="5" width="8" height="1" fill="#e5007d"/><rect x="9" y="5" width="1" height="1" fill="#1b1028"/><rect x="0" y="6" width="1" height="1" fill="#1b1028"/><rect x="1" y="6" width="1" height="1" fill="#e5007d"/><rect x="2" y="6" width="6" height="1" fill="#ffd23f"/><rect x="8" y="6" width="1" height="1" fill="#e5007d"/><rect x="9" y="6" width="1" height="1" fill="#1b1028"/><rect x="0" y="7" width="1" height="1" fill="#1b1028"/><rect x="1" y="7" width="8" height="1" fill="#e5007d"/><rect x="9" y="7" width="1" height="1" fill="#1b1028"/><rect x="0" y="8" width="1" height="1" fill="#1b1028"/><rect x="1" y="8" width="8" height="1" fill="#e5007d"/><rect x="9" y="8" width="1" height="1" fill="#1b1028"/><rect x="0" y="9" width="10" height="1" fill="#1b1028"/></g></svg>